<svg width="43" height="38" viewBox="0 0 43 38" fill="none" xmlns="http://www.w3.org/2000/svg">
<path fill-rule="evenodd" clip-rule="evenodd" d="M40.678 8.45549C40.5542 8.20217 40.3737 7.9707 40.1047 7.82295C39.8085 7.66127 39.4849 7.63392 39.1817 7.68773L39.1602 7.67622C34.6035 8.46111 30.006 11.9217 27.2326 17.2261C24.2448 22.9418 24.2016 29.2179 26.6355 33.5127C31.5249 33.1161 36.6298 29.5387 39.6177 23.8229C42.4023 18.5015 42.626 12.6987 40.678 8.45549Z" fill="#828D8C"/>
<path fill-rule="evenodd" clip-rule="evenodd" d="M39.1512 8.27324C34.6615 9.09034 30.3001 12.6162 27.7469 17.5C25.044 22.6703 24.7488 28.661 26.9602 32.8916C31.6679 32.3462 36.4018 28.7194 39.1036 23.5492C41.6873 18.6115 42.0881 12.9233 40.1502 8.70179C40.0684 8.53564 39.9607 8.41192 39.8267 8.33855C39.6722 8.25266 39.4724 8.22966 39.2829 8.26532C39.2375 8.27209 39.1921 8.27784 39.1512 8.27324ZM26.6356 34.0994C26.4279 34.0994 26.2348 33.9872 26.1315 33.8038C23.4934 29.1491 23.718 22.6921 26.7185 16.9523C29.4986 11.6342 34.1131 7.95013 39.0627 7.09763C39.1093 7.08843 39.158 7.08728 39.2058 7.09188C39.6155 7.04254 40.0276 7.11475 40.3807 7.30724C40.7303 7.49857 41.005 7.79765 41.1991 8.19643C43.2924 12.7548 42.8815 18.843 40.132 24.097C37.1317 29.8355 31.9779 33.6684 26.6822 34.0971C26.6662 34.0982 26.6514 34.0994 26.6356 34.0994Z" fill="#121716"/>
<path fill-rule="evenodd" clip-rule="evenodd" d="M38.5449 10.9455C39.8141 11.6365 40.9413 12.4719 41.8892 13.3862C41.7553 11.6124 41.3579 9.93594 40.6779 8.45549C40.5541 8.20217 40.3737 7.9707 40.1046 7.82295C39.8084 7.66127 39.4848 7.63392 39.1817 7.68773L39.1601 7.67622C37.5891 7.94782 36.018 8.55749 34.5126 9.42827C35.8465 9.72402 37.2178 10.2235 38.5449 10.9455Z" fill="#121716"/>
<path fill-rule="evenodd" clip-rule="evenodd" d="M31.4195 12.2381C30.2071 13.4413 29.0503 14.8025 27.9866 16.3198C30.2321 16.1638 32.7125 16.7128 34.9602 18.043C37.1954 19.3632 38.8744 21.27 39.8369 23.312C40.6215 21.6114 41.2175 19.9064 41.6489 18.2357C40.4807 16.7036 38.9707 15.3434 37.1511 14.2663C35.2984 13.1686 33.3482 12.5084 31.4195 12.2381Z" fill="#121716"/>
<path fill-rule="evenodd" clip-rule="evenodd" d="M25.6285 19.4435C24.8612 20.9422 24.2152 22.4412 23.6897 23.9263C25.7818 23.8758 27.9876 24.42 29.9685 25.6426C31.971 26.8712 32.8656 28.7402 33.7783 30.663C35.5821 29.784 36.4641 28.1019 37.4244 26.7129C36.27 24.6837 34.607 22.888 32.4365 21.5542C30.2715 20.2204 27.9365 19.5547 25.6285 19.4435Z" fill="#121716"/>
<path fill-rule="evenodd" clip-rule="evenodd" d="M9.15772 3.0284C11.0592 4.94659 11.5688 7.54436 10.2951 8.82887C9.02261 10.1134 6.44906 9.60009 4.54875 7.68074C2.64844 5.76254 2.13867 3.16477 3.4112 1.88026C4.68386 0.595756 7.25728 1.1102 9.15772 3.0284Z" fill="#828D8C"/>
<path fill-rule="evenodd" clip-rule="evenodd" d="M7.89771 4.30161C8.85242 5.26186 9.15656 6.51659 8.58107 7.09647C8.00217 7.67967 6.76129 7.37254 5.80784 6.40999C4.85541 5.44744 4.55114 4.19616 5.12777 3.61398C5.70566 3.03078 6.94413 3.33906 7.89771 4.30161Z" fill="#121716"/>
<path fill-rule="evenodd" clip-rule="evenodd" d="M5.2709 1.76061C4.85191 1.76061 4.26047 1.8534 3.82237 2.29563C2.79611 3.33154 3.31715 5.60851 4.95979 7.26661C6.00415 8.3208 7.30289 8.94989 8.43475 8.94989C8.85361 8.94989 9.44619 8.8571 9.88442 8.41474C10.3589 7.93583 10.5235 7.17829 10.3476 6.28105C10.1545 5.29793 9.58585 4.29064 8.74687 3.44376C7.70251 2.38957 6.40377 1.76061 5.2709 1.76061ZM8.43475 10.1232C7.00091 10.1232 5.39461 9.36579 4.1379 8.09611C1.97764 5.91551 1.47813 3.00268 3.00048 1.466C3.57039 0.890724 4.3548 0.587172 5.2709 0.587172C6.70462 0.587172 8.31092 1.34458 9.56876 2.61426C10.5689 3.62257 11.25 4.84419 11.4873 6.05304C11.7416 7.34675 11.4635 8.48005 10.7063 9.24437C10.1364 9.81965 9.35084 10.1232 8.43475 10.1232Z" fill="#121716"/>
<path fill-rule="evenodd" clip-rule="evenodd" d="M26.6355 3.0285C24.734 4.94669 24.2242 7.54447 25.498 8.82897C26.7706 10.1135 29.3441 9.60019 31.2444 7.68084C33.1447 5.76264 33.6544 3.16487 32.3818 1.88036C31.1093 0.595857 28.5358 1.1103 26.6355 3.0285Z" fill="#828D8C"/>
<path fill-rule="evenodd" clip-rule="evenodd" d="M27.8957 4.30161C26.941 5.26186 26.6367 6.51659 27.2122 7.09647C27.7911 7.67967 29.032 7.37254 29.9855 6.40999C30.938 5.44744 31.2422 4.19616 30.6656 3.61398C30.0877 3.03078 28.8493 3.33906 27.8957 4.30161Z" fill="#121716"/>
<path fill-rule="evenodd" clip-rule="evenodd" d="M27.0465 3.44381C26.2076 4.29069 25.6388 5.29797 25.4458 6.2811C25.2698 7.17834 25.4344 7.93587 25.909 8.41479C26.3472 8.85714 26.9398 8.94993 27.3587 8.94993C28.4905 8.94993 29.7891 8.32084 30.8336 7.26665C32.4761 5.60855 32.9973 3.33159 31.971 2.29567C31.5328 1.85345 30.9414 1.76065 30.5225 1.76065C29.3895 1.76065 28.0909 2.38962 27.0465 3.44381ZM25.0871 9.24441C24.3299 8.4801 24.0517 7.34679 24.3061 6.05308C24.5434 4.84424 25.2245 3.62261 26.2245 2.61431C27.4824 1.34463 29.0887 0.587215 30.5225 0.587215C31.4386 0.587215 32.223 0.890768 32.7928 1.46605C34.3153 3.00273 33.8156 5.91556 31.6554 8.09615C30.3987 9.36583 28.7925 10.1232 27.3587 10.1232C26.4426 10.1232 25.657 9.81969 25.0871 9.24441Z" fill="#121716"/>
<path fill-rule="evenodd" clip-rule="evenodd" d="M30.7313 7.79947C27.7343 3.62718 23.1187 0.587172 17.8967 0.587172C12.6748 0.587172 8.05901 3.62718 5.06205 7.79947C1.41578 12.8733 -0.696746 20.0662 1.4725 26.1508C3.30938 31.3051 7.71954 35.2218 12.9051 36.7137C14.5262 37.1812 16.2109 37.4139 17.8967 37.4139C19.5824 37.4139 21.2671 37.1812 22.8882 36.7137C28.0738 35.2218 32.4841 31.3051 34.321 26.1508C36.4903 20.0662 34.3777 12.8733 30.7313 7.79947Z" fill="#828D8C"/>
<path fill-rule="evenodd" clip-rule="evenodd" d="M31.9697 10.1079C31.7621 9.27478 31.2342 8.48413 30.7427 7.79893C30.116 6.92572 29.4145 6.10747 28.6551 5.35121C25.9453 4.03807 22.8484 4.04037 20.4872 5.64799C19.2566 6.48682 18.3939 7.65796 17.8967 8.99282C17.3995 7.65796 16.5367 6.48682 15.3062 5.64799C12.9449 4.04037 9.84799 4.03807 7.13833 5.35121C6.37887 6.10747 5.67727 6.92572 5.05075 7.79893C4.55909 8.48413 4.03121 9.27478 3.82355 10.1079C3.60665 10.9753 3.29453 12.1395 3.33543 13.0172C3.40241 14.445 4.27761 15.497 5.43327 16.2521C5.71588 16.4377 8.73906 18.7731 8.45746 18.9393C8.67094 18.8131 8.94 18.6596 9.23959 18.5004V18.7674C10.3362 18.1222 11.93 17.3315 12.9972 17.4552L13.0107 17.4575C13.0415 17.461 13.0664 17.4748 13.0959 17.4805C13.3899 17.5584 13.6476 17.7028 13.8451 17.9458C14.3015 18.5061 14.3424 19.1535 14.1835 19.7826C14.3015 19.6955 14.4071 19.5855 14.5218 19.4927C14.5092 19.9258 14.4116 20.2547 14.4116 20.2547L14.213 20.5365C15.3833 20.7601 16.6128 20.8826 17.8853 20.8826H17.8921C17.9011 20.8826 17.9035 20.8826 17.9035 20.8826C19.1805 20.8826 20.41 20.7601 21.5805 20.5365L21.3818 20.2547C21.3818 20.2547 21.2842 19.9258 21.2716 19.4927C21.3862 19.5855 21.4918 19.6955 21.61 19.7826C21.4511 19.1535 21.4918 18.5061 21.9483 17.9458C22.1457 17.7028 22.4035 17.5584 22.6975 17.4805C22.727 17.4748 22.7521 17.461 22.7827 17.4575L22.7963 17.4552C23.8633 17.3315 25.4572 18.1222 26.5538 18.7674V18.5004C26.8534 18.6596 27.1225 18.8131 27.336 18.9393C27.0544 18.7731 30.0774 16.4377 30.36 16.2521C31.5157 15.497 32.391 14.445 32.458 13.0172C32.4989 12.1395 32.1866 10.9753 31.9697 10.1079Z" fill="#EDEDEA"/>
<path fill-rule="evenodd" clip-rule="evenodd" d="M17.8967 23.2741C13.4956 23.2741 9.92981 27.7065 9.92981 33.1747C9.92981 34.2667 10.0774 35.313 10.3397 36.295C10.821 36.4404 11.2978 36.5974 11.7916 36.7132C13.7747 37.1807 15.8352 37.4133 17.8967 37.4133C19.9582 37.4133 22.0187 37.1807 24.002 36.7132C24.4957 36.5974 24.9725 36.4404 25.4538 36.295C25.716 35.313 25.8637 34.2667 25.8637 33.1747C25.8637 27.7065 22.2979 23.2741 17.8967 23.2741Z" fill="#EDEDEA"/>
<path fill-rule="evenodd" clip-rule="evenodd" d="M18.7957 14.3006C18.5994 14.3649 18.3939 14.397 18.1884 14.4141C18.2044 14.3786 18.2338 14.3511 18.2338 14.311V13.5157C18.2702 13.4871 18.31 13.4677 18.3417 13.4287L18.9592 12.6747C19.2033 12.3768 19.0887 12.1327 18.7049 12.1327H17.0885C16.7047 12.1327 16.5901 12.3768 16.8341 12.6747L17.4516 13.4287C17.5062 13.4963 17.5721 13.5432 17.639 13.5799V14.311C17.639 14.3511 17.6674 14.3786 17.6822 14.4141C17.4766 14.3957 17.2723 14.3636 17.0771 14.3006C16.825 14.2193 16.304 13.9145 16.2324 14.3878C16.2324 14.4164 16.2324 14.445 16.2324 14.4737C16.2324 15.4214 16.9909 16.1892 17.9342 16.1915H17.9386C18.8821 16.1892 19.6403 15.4214 19.6403 14.4737C19.6403 14.445 19.6403 14.4164 19.6403 14.3878C19.5688 13.9145 19.0478 14.2193 18.7957 14.3006Z" fill="#121716"/>
<path fill-rule="evenodd" clip-rule="evenodd" d="M17.8968 1.17331C13.2208 1.17331 8.71403 3.71383 5.53321 8.14379C1.52823 13.7163 0.148956 20.7062 2.01976 25.9521C3.73838 30.7763 7.97052 34.6839 13.0642 36.1495C16.1837 37.0478 19.6109 37.0478 22.7282 36.1495C27.823 34.6839 32.055 30.7763 33.7736 25.9521C35.6446 20.7062 34.2653 13.7163 30.2614 8.14379C27.0794 3.71383 22.5727 1.17331 17.8968 1.17331ZM17.8968 38C16.1417 38 14.4083 37.7572 12.7451 37.277C7.21561 35.6865 2.79734 31.6015 0.925389 26.3487C-1.49824 19.5511 1.2308 12.1315 4.59217 7.45399C7.99432 2.71677 12.844 0 17.8968 0C22.9495 0 27.7992 2.71677 31.2025 7.45399C34.5627 12.1315 37.2918 19.5511 34.8681 26.3487C32.9962 31.6015 28.5779 35.6865 23.0473 37.277C21.3853 37.7572 19.6517 38 17.8968 38Z" fill="#121716"/>
<path fill-rule="evenodd" clip-rule="evenodd" d="M13.2266 7.50549C12.7362 7.23849 12.189 7.10326 11.5998 7.10326C9.95598 7.10326 8.31904 8.4968 7.51639 9.43404C6.16675 11.0097 4.91803 14.1792 7.49943 15.2666C8.43261 15.6597 9.46102 15.7789 10.4646 15.7971C11.7463 15.8223 13.1164 15.7927 14.128 14.8805C15.1541 13.9546 15.3198 12.4421 15.2245 11.1288C15.1008 9.42369 14.3912 8.13573 13.2266 7.50549Z" fill="#121716"/>
<path fill-rule="evenodd" clip-rule="evenodd" d="M13.2875 10.2442C13.2692 10.0196 13.0253 9.77208 12.8822 9.64377C12.5633 9.36299 12.1557 9.2072 11.7323 9.2072C11.5985 9.2072 11.4611 9.22202 11.3215 9.25193C10.7812 9.36644 10.3271 9.69527 10.0763 10.1547C9.98094 10.3289 9.81863 10.6761 9.86054 10.8744C9.89573 11.0394 10.0502 11.1527 10.208 11.1813C10.4179 11.2203 10.4997 11.1206 10.5996 10.9489C10.6188 10.9155 10.6392 10.8811 10.662 10.8446C10.9661 10.369 11.3953 10.1078 11.8708 10.1078C12.1376 10.1078 12.2999 10.1856 12.5417 10.3473C12.7006 10.4539 12.8743 10.6681 13.09 10.5535C13.2454 10.4699 13.2966 10.361 13.2875 10.2442Z" fill="#FFFFFE"/>
<path fill-rule="evenodd" clip-rule="evenodd" d="M22.567 7.50549C23.0574 7.23849 23.6045 7.10326 24.1937 7.10326C25.8376 7.10326 27.4744 8.4968 28.2771 9.43404C29.6268 11.0097 30.8755 14.1792 28.2941 15.2666C27.361 15.6597 26.3324 15.7789 25.329 15.7971C24.0473 15.8223 22.6772 15.7927 21.6656 14.8805C20.6393 13.9546 20.4736 12.4421 20.5689 11.1288C20.6928 9.42369 21.4022 8.13573 22.567 7.50549Z" fill="#121716"/>
<path fill-rule="evenodd" clip-rule="evenodd" d="M22.5056 10.2442C22.5239 10.0196 22.768 9.77208 22.9109 9.64377C23.23 9.36299 23.6374 9.2072 24.0608 9.2072C24.1947 9.2072 24.3321 9.22202 24.4717 9.25193C25.012 9.36644 25.4661 9.69527 25.7169 10.1547C25.8123 10.3289 25.9746 10.6761 25.9327 10.8744C25.8974 11.0394 25.7432 11.1527 25.5851 11.1813C25.3752 11.2203 25.2936 11.1206 25.1937 10.9489C25.1743 10.9155 25.1539 10.8811 25.1313 10.8446C24.827 10.369 24.3981 10.1078 23.9224 10.1078C23.6555 10.1078 23.4933 10.1856 23.2515 10.3473C23.0926 10.4539 22.9189 10.6681 22.7033 10.5535C22.5477 10.4699 22.4966 10.361 22.5056 10.2442Z" fill="#FFFFFE"/>
<path fill-rule="evenodd" clip-rule="evenodd" d="M6.36079 20.9272C6.20645 20.9272 6.05199 20.8653 5.9374 20.7428C5.7171 20.5067 5.7285 20.1355 5.96235 19.9131C6.09516 19.7871 7.28706 18.6665 8.13268 18.2551C8.41984 18.1166 8.76839 18.2369 8.90791 18.529C9.04756 18.82 8.92615 19.1707 8.63659 19.3115C8.05773 19.5935 7.08499 20.4586 6.75923 20.768C6.6468 20.8745 6.50373 20.9272 6.36079 20.9272Z" fill="#121716"/>
<path fill-rule="evenodd" clip-rule="evenodd" d="M13.3048 17.2032C11.7007 16.2293 9.20211 17.5859 8.33717 18.1187C7.62418 17.7658 6.99538 17.2501 6.41977 16.7036C5.72615 16.0458 5.29019 15.6321 4.82714 14.7681C4.71812 14.6077 4.54782 14.4886 4.34004 14.4886C3.66009 14.4886 3.67149 15.2151 3.94157 15.6436C4.77485 16.9637 5.72615 17.8186 7.01235 18.6917C7.37448 18.937 7.757 19.1638 8.16459 19.3265C8.34161 19.3976 8.54711 19.3793 8.70716 19.2716C9.41559 18.796 11.6622 17.5791 12.7077 18.2093C13.2162 18.5175 13.4876 18.9416 13.5136 19.4698C13.5602 20.422 12.8042 21.5793 11.4908 22.5671C10.1421 23.5813 7.76156 23.8665 5.70348 23.2626C4.23786 22.8329 2.28652 21.7764 1.31015 19.1901C1.1967 18.8853 0.857233 18.7341 0.560943 18.8509C0.260094 18.9656 0.110303 19.3048 0.224894 19.6073C1.11946 21.9782 2.9495 23.6763 5.37883 24.3892C6.21199 24.6343 7.08275 24.7534 7.93414 24.7534C9.55513 24.7534 11.1047 24.3215 12.1854 23.509C13.8349 22.268 14.742 20.775 14.6739 19.4114C14.6284 18.4946 14.1426 17.7109 13.3048 17.2032Z" fill="#121716"/>
<path fill-rule="evenodd" clip-rule="evenodd" d="M29.4325 20.9272C29.5869 20.9272 29.7413 20.8653 29.8559 20.7428C30.0761 20.5067 30.0647 20.1355 29.831 19.9131C29.6981 19.7871 28.5062 18.6665 27.6606 18.2551C27.3735 18.1166 27.025 18.2369 26.8853 18.529C26.7457 18.82 26.8672 19.1707 27.1566 19.3115C27.7356 19.5935 28.7083 20.4586 29.0341 20.768C29.1464 20.8745 29.2895 20.9272 29.4325 20.9272Z" fill="#121716"/>
<path fill-rule="evenodd" clip-rule="evenodd" d="M22.4886 17.2032C24.0926 16.2293 26.5913 17.5859 27.4562 18.1187C28.1692 17.7658 28.7982 17.2501 29.3735 16.7036C30.0673 16.0458 30.5031 15.6321 30.9664 14.7681C31.0753 14.6077 31.2456 14.4886 31.4532 14.4886C32.1332 14.4886 32.1221 15.2151 31.8518 15.6436C31.0186 16.9637 30.0673 17.8186 28.7811 18.6917C28.4188 18.937 28.0364 19.1638 27.6288 19.3265C27.4517 19.3976 27.2463 19.3793 27.0861 19.2716C26.3778 18.796 24.1312 17.5791 23.0857 18.2093C22.5772 18.5175 22.3058 18.9416 22.2796 19.4698C22.2332 20.422 22.9892 21.5793 24.3026 22.5671C25.6513 23.5813 28.0319 23.8665 30.0899 23.2626C31.5556 22.8329 33.5069 21.7764 34.4831 19.1901C34.5966 18.8853 34.9361 18.7341 35.2325 18.8509C35.5332 18.9656 35.6831 19.3048 35.5684 19.6073C34.674 21.9782 32.844 23.6763 30.4146 24.3892C29.5813 24.6343 28.7107 24.7534 27.8593 24.7534C26.2382 24.7534 24.6886 24.3215 23.6079 23.509C21.9584 22.268 21.0514 20.775 21.1195 19.4114C21.1649 18.4946 21.6507 17.7109 22.4886 17.2032Z" fill="#121716"/>
<path fill-rule="evenodd" clip-rule="evenodd" d="M9.19072 29.1526C11.0957 31.0754 11.518 33.7705 10.1307 35.1697C8.74349 36.57 6.07346 36.1471 4.16859 34.2231C2.26372 32.298 1.84144 29.6052 3.23097 28.2048C4.61594 26.8035 7.28597 27.2286 9.19072 29.1526Z" fill="#828D8C"/>
<path fill-rule="evenodd" clip-rule="evenodd" d="M8.5495 31.3825C9.59614 32.4413 9.76872 33.9836 8.93214 34.8292C8.0943 35.675 6.56397 35.5031 5.51619 34.4443C4.46728 33.3844 4.29482 31.8408 5.13254 30.9951C5.97025 30.1495 7.50058 30.3236 8.5495 31.3825Z" fill="#EDEDEA"/>
<path fill-rule="evenodd" clip-rule="evenodd" d="M5.36516 27.9653C4.66014 27.9653 4.06528 28.1911 3.64187 28.6197C3.105 29.1606 2.89038 29.9799 3.03915 30.9263C3.19692 31.9405 3.74405 32.9638 4.57961 33.8084C6.18249 35.4286 8.6084 35.8789 9.71987 34.7548C10.2556 34.2139 10.4691 33.3958 10.3214 32.4492C10.1625 31.434 9.61541 30.4107 8.77985 29.5674C7.78651 28.5647 6.51057 27.9653 5.36516 27.9653ZM7.9943 36.5825C6.52538 36.5825 4.9815 35.8732 3.75772 34.6379C2.74957 33.6203 2.08672 32.3656 1.89033 31.1086C1.68255 29.7816 2.0129 28.6026 2.8201 27.7901C3.46485 27.137 4.34461 26.792 5.36516 26.792C6.83294 26.792 8.37808 27.5012 9.60174 28.7377C10.6099 29.7553 11.2727 31.0077 11.4691 32.2659C11.6769 33.593 11.3477 34.7719 10.5416 35.5846C9.89461 36.2375 9.01371 36.5825 7.9943 36.5825Z" fill="#121716"/>
<path fill-rule="evenodd" clip-rule="evenodd" d="M26.6027 29.1526C24.6978 31.0754 24.2755 33.7705 25.6628 35.1697C27.05 36.57 29.7199 36.1471 31.6249 34.2231C33.5298 32.298 33.9521 29.6052 32.5626 28.2048C31.1776 26.8035 28.5076 27.2286 26.6027 29.1526Z" fill="#828D8C"/>
<path fill-rule="evenodd" clip-rule="evenodd" d="M27.2439 31.3825C26.1974 32.4413 26.0247 33.9836 26.8615 34.8292C27.6992 35.675 29.2294 35.5031 30.2772 34.4443C31.3261 33.3844 31.4987 31.8408 30.6609 30.9951C29.8232 30.1495 28.2928 30.3236 27.2439 31.3825Z" fill="#EDEDEA"/>
<path fill-rule="evenodd" clip-rule="evenodd" d="M27.0137 29.5674C26.1781 30.4107 25.631 31.434 25.472 32.4492C25.3245 33.3958 25.5379 34.2139 26.0737 34.7548C27.185 35.8789 29.6109 35.4286 31.2139 33.8084C32.0494 32.9638 32.5966 31.9405 32.7544 30.9263C32.903 29.9799 32.6885 29.1606 32.1515 28.6197C31.7281 28.1911 31.1333 27.9653 30.4284 27.9653C29.283 27.9653 28.007 28.5647 27.0137 29.5674ZM25.2518 35.5846C24.4458 34.7719 24.1166 33.593 24.3244 32.2659C24.5207 31.0077 25.1838 29.7553 26.1918 28.7377C27.4156 27.5012 28.9606 26.792 30.4284 26.792C31.4488 26.792 32.3287 27.137 32.9734 27.7901C33.7806 28.6026 34.111 29.7816 33.9032 31.1086C33.7068 32.3656 33.0438 33.6203 32.0358 34.6379C30.812 35.8732 29.268 36.5825 27.7992 36.5825C26.7798 36.5825 25.8988 36.2375 25.2518 35.5846Z" fill="#121716"/>
<path fill-rule="evenodd" clip-rule="evenodd" d="M21.5441 1.26321C21.5713 1.17617 21.5997 1.09143 21.6246 0.999664C20.4168 0.732793 19.1715 0.587215 17.8967 0.587215C16.6217 0.587215 15.3765 0.732793 14.1686 0.999664C14.1937 1.09143 14.222 1.17617 14.2492 1.26321L13.6146 1.37556L13.7031 1.64831L13.7315 1.86137C13.9166 1.79606 14.113 1.75363 14.3231 1.75363C14.6601 1.75363 15.0166 1.89358 15.2947 2.07916C16.3414 2.78954 17.1077 3.74749 17.6253 4.83274C17.6832 4.91633 17.7673 4.98279 17.8864 4.98279C18.0181 4.98279 18.1123 4.90496 18.1691 4.80871H18.1781C18.697 3.73382 19.4588 2.78507 20.4986 2.07916C20.7766 1.89358 21.1331 1.75363 21.4702 1.75363C21.6803 1.75363 21.8766 1.79606 22.0617 1.86137L22.0901 1.64831L22.1786 1.37556L21.5441 1.26321Z" fill="#121716"/>
</svg>
