<svg xmlns="http://www.w3.org/2000/svg" viewBox="0 0 369.97 63.33"><g id="bfdc6d68-bd53-460e-848c-2d6a74a48ed5" data-name="Layer 2"><g id="e62f78c9-6527-43db-b9d2-a106d9f5911d" data-name="Layer 1"><path d="M91.23,50.7c-4.46,0-10.37-1.37-13-4.32a2.73,2.73,0,0,1-.69-1.79,3.18,3.18,0,0,1,3.16-3.09,2.88,2.88,0,0,1,1.64.48,17.16,17.16,0,0,0,9.13,3c4.33,0,6.46-1.85,6.46-4.39,0-6.45-20-1.78-20-14.55,0-5.42,4.74-10.09,13.18-10.09,4.46,0,9.47,1.37,11.74,4a2.47,2.47,0,0,1,.62,1.65,2.9,2.9,0,0,1-3,2.81A3.18,3.18,0,0,1,99,23.93a14.3,14.3,0,0,0-7.9-2.33c-3.71,0-6,1.78-6,4,0,5.83,20,1.44,20,14.62C105,46.17,100.15,50.7,91.23,50.7Z" fill="#3684ef"/><path d="M134.35,50.29a3.62,3.62,0,0,1-3.64-3.64V45.48A15.88,15.88,0,0,1,119,50.7c-7.14,0-10.64-3.78-10.64-10.5V19.88a3.68,3.68,0,0,1,7.35,0V37.52c0,5.08,2.61,6.66,6.59,6.66a11,11,0,0,0,8.44-4.26v-20a3.68,3.68,0,0,1,7.35,0V46.65A3.68,3.68,0,0,1,134.35,50.29Z" fill="#3684ef"/><path d="M160.93,50.7a13.09,13.09,0,0,1-10.57-5.35v14a3.67,3.67,0,0,1-3.71,3.57A3.61,3.61,0,0,1,143,59.35V19.88a3.68,3.68,0,0,1,7.35,0v1.3a13.13,13.13,0,0,1,10.57-5.28c8.58,0,14.69,6.45,14.69,17.36S169.51,50.7,160.93,50.7Zm-2.2-28.28a10.74,10.74,0,0,0-8.37,4.39v13a10.94,10.94,0,0,0,8.37,4.39c5.63,0,9.27-4.53,9.27-10.92S164.36,22.42,158.73,22.42Z" fill="#3684ef"/><path d="M197.18,50.7a13.09,13.09,0,0,1-10.57-5.35v14a3.67,3.67,0,0,1-3.71,3.57,3.61,3.61,0,0,1-3.64-3.57V19.88a3.68,3.68,0,0,1,7.35,0v1.3a13.13,13.13,0,0,1,10.57-5.28c8.58,0,14.69,6.45,14.69,17.36S205.76,50.7,197.18,50.7ZM195,22.42a10.74,10.74,0,0,0-8.37,4.39v13A10.94,10.94,0,0,0,195,44.18c5.63,0,9.27-4.53,9.27-10.92S200.61,22.42,195,22.42Z" fill="#3684ef"/><path d="M218.66,50.29A3.62,3.62,0,0,1,215,46.65V7.25a3.67,3.67,0,0,1,7.34,0v39.4A3.67,3.67,0,0,1,218.66,50.29Z" fill="#3684ef"/><path d="M256.83,21.25,242.68,55.78c-2.19,5.42-6.1,7.55-10.77,7.55-2.54,0-4.88-1-4.88-3.29a3.34,3.34,0,0,1,3.44-3.3,9,9,0,0,0,1.37,0A4.3,4.3,0,0,0,235.68,54l1.65-3.71L225.45,21.18a4.06,4.06,0,0,1-.2-1.23A3.67,3.67,0,0,1,229,16.31a3.74,3.74,0,0,1,3.43,2.4l8.78,22.65L250,18.71a3.69,3.69,0,0,1,7.14,1.17A3.14,3.14,0,0,1,256.83,21.25Z" fill="#3684ef"/><path d="M278,50.7a13.12,13.12,0,0,1-10.57-5.35v14a3.66,3.66,0,0,1-3.7,3.57,3.61,3.61,0,0,1-3.64-3.57V19.88a3.67,3.67,0,0,1,7.34,0v1.3A13.15,13.15,0,0,1,278,15.9c8.58,0,14.69,6.45,14.69,17.36S286.58,50.7,278,50.7Zm-2.19-28.28a10.74,10.74,0,0,0-8.38,4.39v13a11,11,0,0,0,8.38,4.39c5.63,0,9.26-4.53,9.26-10.92S281.44,22.42,275.81,22.42Z" fill="#3684ef"/><path d="M300.29,50.29a3.62,3.62,0,0,1-3.64-3.64V19.88a3.67,3.67,0,0,1,7.34,0V46.65A3.67,3.67,0,0,1,300.29,50.29Z" fill="#3684ef"/><path d="M300.32,3.93a4.25,4.25,0,1,0,0,8.5,4.25,4.25,0,1,0,0-8.5Z" fill="#3684ef"/><path d="M333,50.29a3.57,3.57,0,0,1-3-1.51l-9.19-12.5L316.24,41v5.63a3.68,3.68,0,0,1-3.71,3.64,3.62,3.62,0,0,1-3.64-3.64V7.25a3.68,3.68,0,0,1,7.35,0V32.58L330,17.34a3.28,3.28,0,0,1,2.41-1.1,3.61,3.61,0,0,1,3.5,3.5,3.79,3.79,0,0,1-.83,2.2l-9.06,9.81,9.89,12.77a3.89,3.89,0,0,1,.68,2.06A3.71,3.71,0,0,1,333,50.29Z" fill="#3684ef"/><path d="M366.4,35.67H344.57c.48,4.94,4.26,9.13,10.44,9.13a14.31,14.31,0,0,0,7.41-2.2,3.18,3.18,0,0,1,1.51-.41,3.1,3.1,0,0,1,3.09,3c0,3.77-8.51,5.49-12.77,5.49-9.95,0-17.37-6.93-17.37-17.44,0-9.61,7-17.36,16.82-17.36,7.76,0,13.39,4.67,15.45,11.8a16.2,16.2,0,0,1,.82,4.4A3.59,3.59,0,0,1,366.4,35.67ZM353.7,21.8c-6,0-8.85,4.81-9.2,8.79h18.4C362.76,26.74,360.15,21.8,353.7,21.8Z" fill="#3684ef"/><path d="M35.06,0h.52A16.19,16.19,0,0,1,47,5.21a16.37,16.37,0,0,1,4.34,10c-.29,0-.58.05-.84.09h-.21c-.38,0-.73.09-1.09.15l-.19,0-.35.07a15,15,0,0,0-1.87.48c-.24.07-.48.14-.72.23l-.12,0-.78.27-.31.14h0c-.21.08-.41.17-.59.26a9.39,9.39,0,0,0-2.46-6.86,9.24,9.24,0,0,0-13.11-.42,9.35,9.35,0,0,0-.64,13l4,4.34L26.94,31.9l-3.89-4.17a16.57,16.57,0,0,1-4.33-10.57c0-.13,0-.31,0-.5v-.84a5.48,5.48,0,0,1,0-.55A16.51,16.51,0,0,1,23.85,4.46,16.25,16.25,0,0,1,35.06,0m21.1,49.12h0a3.55,3.55,0,0,0,4.28.72,15.51,15.51,0,0,0,3.42-2.43,16.73,16.73,0,0,0,1.81-2l.13-.15.24-.32.07-.11a16.71,16.71,0,0,0-1.54-20.72,16,16,0,0,0-5.27-3.77c-.5-.22-.94-.4-1.42-.56l-.15-.06c-.35-.11-.74-.22-1.24-.35l-.51-.1-.62-.12-.15,0c-.43-.06-.84-.11-1.28-.15l-.28,0a17.09,17.09,0,0,0-3.92.23,16,16,0,0,0-8.27,4.15L22.7,41a9.24,9.24,0,0,1-13.11-.41A9.42,9.42,0,0,1,11,26.54a9.81,9.81,0,0,1,1.37-.76,3.5,3.5,0,0,0,1.17-5.56L13.4,20a3.43,3.43,0,0,0-4-.76,16.25,16.25,0,0,0-4.24,2.88L5,22.29A16.69,16.69,0,0,0,.12,36.2a16.43,16.43,0,0,0,4.29,9.31c.34.36.71.72,1.14,1.1l.13.12c.42.36.83.69,1.23,1s.81.54,1.32.84l.11.06a14.14,14.14,0,0,0,1.29.65l.21.1c.39.16.8.33,1.27.48l.15.06c.39.13.81.24,1.28.36l.34.08,1.11.19c.2,0,.39.06.59.08s.62.06.93.08l.63,0h.61L18,50.62l.49-.06c.26,0,.53-.07.79-.12a16.12,16.12,0,0,0,8.28-4.17l6.81-6.44h0L46.28,28.54A9.32,9.32,0,0,1,59,42.18a8.08,8.08,0,0,1-1.77,1.22,3.64,3.64,0,0,0-1.06,5.72" fill="#3684ef" fill-rule="evenodd"/></g></g></svg>